<?xml version="1.0" standalone="no"?>
<!DOCTYPE svg PUBLIC "-//W3C//DTD SVG 20010904//EN"
 "http://www.w3.org/TR/2001/REC-SVG-20010904/DTD/svg10.dtd">
<svg version="1.0" xmlns="http://www.w3.org/2000/svg"
 width="720.000000pt" height="720.000000pt" viewBox="0 0 720.000000 720.000000"
 preserveAspectRatio="xMidYMid meet">
<metadata>
Created by potrace 1.14, written by Peter Selinger 2001-2017
</metadata>
<g transform="translate(0.000000,720.000000) scale(0.100000,-0.100000)"
fill="#000000" stroke="none">
<path d="M3990 6543 c-309 -28 -608 -225 -808 -531 -105 -161 -197 -392 -236
-592 -2 -14 -9 -49 -15 -77 -33 -167 -36 -511 -6 -685 14 -77 25 -131 31 -148
11 -28 34 -121 34 -135 0 -29 -30 -14 -102 53 -340 314 -681 509 -998 567 -72
14 -238 16 -315 4 -289 -43 -547 -234 -620 -459 -28 -84 -25 -219 5 -310 17
-50 84 -184 100 -200 3 -3 10 -12 15 -21 74 -120 228 -307 248 -301 4 1 7 -5
7 -13 0 -8 4 -15 8 -15 5 0 22 -12 38 -26 42 -37 148 -105 229 -147 79 -41
195 -88 195 -80 0 3 6 1 13 -5 18 -15 196 -57 287 -68 183 -22 337 -22 556 0
48 5 38 -22 -31 -85 -342 -310 -582 -643 -728 -1009 -48 -119 -102 -314 -92
-330 3 -5 2 -11 -3 -14 -16 -10 -22 -297 -7 -334 4 -9 9 -30 11 -47 3 -16 9
-32 14 -33 6 -2 8 -8 5 -13 -3 -5 0 -19 7 -31 7 -13 13 -25 13 -28 4 -18 40
-80 47 -80 4 0 8 -5 8 -11 0 -6 16 -30 35 -53 19 -24 35 -47 35 -53 0 -15 121
-143 136 -143 8 0 14 -4 14 -10 0 -5 21 -19 48 -31 329 -151 722 13 975 406
149 232 296 665 341 1005 8 62 17 125 21 145 2 11 4 26 4 33 1 20 19 14 27
-10 5 -13 7 -26 6 -30 -1 -5 3 -8 10 -8 6 0 9 -3 6 -6 -4 -3 2 -24 12 -47 25
-59 33 -81 34 -89 1 -3 4 -10 9 -14 4 -4 7 -16 7 -26 0 -10 5 -18 12 -18 6 0
9 -3 5 -6 -3 -4 3 -25 15 -48 11 -22 20 -41 18 -41 -6 0 45 -101 54 -107 6 -4
8 -8 3 -8 -4 0 -1 -13 8 -30 8 -16 15 -33 14 -36 0 -4 3 -10 8 -13 4 -3 22
-33 38 -66 17 -33 33 -62 36 -65 3 -3 19 -29 35 -57 16 -29 32 -53 37 -53 4 0
7 -8 7 -18 0 -10 9 -25 20 -35 11 -9 20 -23 20 -31 0 -8 3 -16 8 -18 4 -2 20
-23 37 -48 74 -111 177 -250 186 -250 5 0 8 -3 7 -7 -4 -10 43 -69 102 -133
25 -27 63 -69 85 -94 21 -25 42 -43 47 -40 4 3 8 -1 9 -8 1 -11 54 -61 142
-133 13 -11 34 -28 46 -37 101 -83 295 -192 591 -333 14 -7 42 -15 63 -18 32
-5 43 -2 69 22 l31 28 -34 36 c-22 24 -92 65 -205 122 -329 164 -563 349 -788
620 -32 39 -67 81 -79 94 -11 14 -64 91 -117 171 -99 152 -218 373 -289 541
-56 134 -152 401 -156 439 -1 8 -6 23 -10 32 -4 10 -5 23 -3 29 2 7 17 -14 33
-47 16 -32 40 -74 53 -91 14 -18 20 -33 16 -33 -5 0 -4 -4 1 -8 6 -4 25 -36
44 -72 54 -103 210 -335 259 -386 7 -8 11 -14 8 -14 -4 0 17 -29 45 -65 28
-36 55 -65 60 -65 5 0 9 -5 9 -11 0 -16 131 -155 221 -235 82 -72 289 -213
289 -196 0 4 4 2 8 -4 8 -13 117 -61 153 -67 13 -3 42 -10 64 -16 89 -24 208
-13 289 25 71 33 119 75 165 142 159 238 173 522 40 836 -92 219 -265 463
-468 662 -50 49 -91 97 -91 106 0 15 14 17 128 17 175 -1 244 7 402 46 368 92
661 280 778 502 99 189 101 338 6 512 -54 98 -99 153 -184 222 -118 95 -336
184 -500 205 -112 14 -281 18 -360 9 -19 -2 -59 -7 -89 -10 -30 -3 -59 -9 -63
-11 -5 -3 -23 -7 -41 -9 -58 -8 -247 -59 -247 -68 0 -4 -4 -6 -9 -3 -5 4 -22
1 -38 -5 -15 -7 -32 -13 -38 -15 -20 -5 -142 -52 -202 -78 -34 -14 -67 -26
-73 -26 -20 0 -9 29 33 86 298 407 449 800 434 1128 -8 186 -63 343 -170 486
-76 101 -145 159 -258 216 -116 58 -298 97 -409 87z"/>
</g>
</svg>
